<svg width="32" height="32" viewBox="0 0 32 32" fill="none" xmlns="http://www.w3.org/2000/svg">
<path d="M5.33334 18.6666V16H14.6667V18.6666H5.33334ZM5.33334 13.3333V10.6666H20V13.3333H5.33334ZM5.33334 7.99998V5.33331H20V7.99998H5.33334ZM17.3333 26.6666V22.5666L24.7 15.2333C24.9 15.0333 25.1222 14.8889 25.3667 14.8C25.6111 14.7111 25.8556 14.6666 26.1 14.6666C26.3667 14.6666 26.6222 14.7166 26.8667 14.8166C27.1111 14.9166 27.3333 15.0666 27.5333 15.2666L28.7667 16.5C28.9444 16.7 29.0833 16.9222 29.1833 17.1666C29.2833 17.4111 29.3333 17.6555 29.3333 17.9C29.3333 18.1444 29.2889 18.3944 29.2 18.65C29.1111 18.9055 28.9667 19.1333 28.7667 19.3333L21.4333 26.6666H17.3333ZM19.3333 24.6666H20.6L24.6333 20.6L24.0333 19.9666L23.4 19.3666L19.3333 23.4V24.6666ZM24.0333 19.9666L23.4 19.3666L24.6333 20.6L24.0333 19.9666Z" fill="#B6325B"/>
</svg>
