<svg width="60" height="61" viewBox="0 0 60 61" fill="none" xmlns="http://www.w3.org/2000/svg">
<path d="M35 25.25V21C36.375 20.4167 37.7812 19.9792 39.2188 19.6875C40.6562 19.3958 42.1667 19.25 43.75 19.25C44.8333 19.25 45.8958 19.3333 46.9375 19.5C47.9792 19.6667 49 19.875 50 20.125V24.125C49 23.75 47.9896 23.4688 46.9688 23.2812C45.9479 23.0938 44.875 23 43.75 23C42.1667 23 40.6458 23.1979 39.1875 23.5938C37.7292 23.9896 36.3333 24.5417 35 25.25ZM35 39V34.75C36.375 34.1667 37.7812 33.7292 39.2188 33.4375C40.6562 33.1458 42.1667 33 43.75 33C44.8333 33 45.8958 33.0833 46.9375 33.25C47.9792 33.4167 49 33.625 50 33.875V37.875C49 37.5 47.9896 37.2188 46.9688 37.0312C45.9479 36.8438 44.875 36.75 43.75 36.75C42.1667 36.75 40.6458 36.9375 39.1875 37.3125C37.7292 37.6875 36.3333 38.25 35 39ZM35 32.125V27.875C36.375 27.2917 37.7812 26.8542 39.2188 26.5625C40.6562 26.2708 42.1667 26.125 43.75 26.125C44.8333 26.125 45.8958 26.2083 46.9375 26.375C47.9792 26.5417 49 26.75 50 27V31C49 30.625 47.9896 30.3438 46.9688 30.1562C45.9479 29.9688 44.875 29.875 43.75 29.875C42.1667 29.875 40.6458 30.0729 39.1875 30.4688C37.7292 30.8646 36.3333 31.4167 35 32.125ZM16.25 40.5C18.2083 40.5 20.1146 40.7188 21.9688 41.1562C23.8229 41.5938 25.6667 42.25 27.5 43.125V18.5C25.7917 17.5 23.9792 16.75 22.0625 16.25C20.1458 15.75 18.2083 15.5 16.25 15.5C14.75 15.5 13.2604 15.6458 11.7812 15.9375C10.3021 16.2292 8.875 16.6667 7.5 17.25V42C8.95833 41.5 10.4062 41.125 11.8438 40.875C13.2812 40.625 14.75 40.5 16.25 40.5ZM32.5 43.125C34.3333 42.25 36.1771 41.5938 38.0312 41.1562C39.8854 40.7188 41.7917 40.5 43.75 40.5C45.25 40.5 46.7188 40.625 48.1562 40.875C49.5938 41.125 51.0417 41.5 52.5 42V17.25C51.125 16.6667 49.6979 16.2292 48.2188 15.9375C46.7396 15.6458 45.25 15.5 43.75 15.5C41.7917 15.5 39.8542 15.75 37.9375 16.25C36.0208 16.75 34.2083 17.5 32.5 18.5V43.125ZM30 50.5C28 48.9167 25.8333 47.6875 23.5 46.8125C21.1667 45.9375 18.75 45.5 16.25 45.5C14.5 45.5 12.7812 45.7292 11.0938 46.1875C9.40625 46.6458 7.79167 47.2917 6.25 48.125C5.375 48.5833 4.53125 48.5625 3.71875 48.0625C2.90625 47.5625 2.5 46.8333 2.5 45.875V15.75C2.5 15.2917 2.61458 14.8542 2.84375 14.4375C3.07292 14.0208 3.41667 13.7083 3.875 13.5C5.79167 12.5 7.79167 11.75 9.875 11.25C11.9583 10.75 14.0833 10.5 16.25 10.5C18.6667 10.5 21.0312 10.8125 23.3438 11.4375C25.6562 12.0625 27.875 13 30 14.25C32.125 13 34.3438 12.0625 36.6562 11.4375C38.9688 10.8125 41.3333 10.5 43.75 10.5C45.9167 10.5 48.0417 10.75 50.125 11.25C52.2083 11.75 54.2083 12.5 56.125 13.5C56.5833 13.7083 56.9271 14.0208 57.1562 14.4375C57.3854 14.8542 57.5 15.2917 57.5 15.75V45.875C57.5 46.8333 57.0938 47.5625 56.2812 48.0625C55.4688 48.5625 54.625 48.5833 53.75 48.125C52.2083 47.2917 50.5938 46.6458 48.9062 46.1875C47.2188 45.7292 45.5 45.5 43.75 45.5C41.25 45.5 38.8333 45.9375 36.5 46.8125C34.1667 47.6875 32 48.9167 30 50.5Z" fill="#1C793D"/>
</svg>
