<svg width="32" height="32" viewBox="0 0 32 32" fill="none" xmlns="http://www.w3.org/2000/svg">
<path d="M18.6667 13.2V10.9333C19.4 10.6222 20.15 10.3889 20.9167 10.2333C21.6833 10.0778 22.4889 9.99998 23.3333 9.99998C23.9111 9.99998 24.4778 10.0444 25.0333 10.1333C25.5889 10.2222 26.1333 10.3333 26.6667 10.4666V12.6C26.1333 12.4 25.5944 12.25 25.05 12.15C24.5056 12.05 23.9333 12 23.3333 12C22.4889 12 21.6778 12.1055 20.9 12.3166C20.1222 12.5278 19.3778 12.8222 18.6667 13.2ZM18.6667 20.5333V18.2666C19.4 17.9555 20.15 17.7222 20.9167 17.5666C21.6833 17.4111 22.4889 17.3333 23.3333 17.3333C23.9111 17.3333 24.4778 17.3778 25.0333 17.4666C25.5889 17.5555 26.1333 17.6666 26.6667 17.8V19.9333C26.1333 19.7333 25.5944 19.5833 25.05 19.4833C24.5056 19.3833 23.9333 19.3333 23.3333 19.3333C22.4889 19.3333 21.6778 19.4333 20.9 19.6333C20.1222 19.8333 19.3778 20.1333 18.6667 20.5333ZM18.6667 16.8666V14.6C19.4 14.2889 20.15 14.0555 20.9167 13.9C21.6833 13.7444 22.4889 13.6666 23.3333 13.6666C23.9111 13.6666 24.4778 13.7111 25.0333 13.8C25.5889 13.8889 26.1333 14 26.6667 14.1333V16.2666C26.1333 16.0666 25.5944 15.9166 25.05 15.8166C24.5056 15.7166 23.9333 15.6666 23.3333 15.6666C22.4889 15.6666 21.6778 15.7722 20.9 15.9833C20.1222 16.1944 19.3778 16.4889 18.6667 16.8666ZM8.66667 21.3333C9.71111 21.3333 10.7278 21.45 11.7167 21.6833C12.7056 21.9166 13.6889 22.2666 14.6667 22.7333V9.59998C13.7556 9.06665 12.7889 8.66665 11.7667 8.39998C10.7444 8.13331 9.71111 7.99998 8.66667 7.99998C7.86667 7.99998 7.07222 8.07776 6.28333 8.23331C5.49444 8.38887 4.73333 8.6222 4 8.93331V22.1333C4.77778 21.8666 5.55 21.6666 6.31667 21.5333C7.08333 21.4 7.86667 21.3333 8.66667 21.3333ZM17.3333 22.7333C18.3111 22.2666 19.2944 21.9166 20.2833 21.6833C21.2722 21.45 22.2889 21.3333 23.3333 21.3333C24.1333 21.3333 24.9167 21.4 25.6833 21.5333C26.45 21.6666 27.2222 21.8666 28 22.1333V8.93331C27.2667 8.6222 26.5056 8.38887 25.7167 8.23331C24.9278 8.07776 24.1333 7.99998 23.3333 7.99998C22.2889 7.99998 21.2556 8.13331 20.2333 8.39998C19.2111 8.66665 18.2444 9.06665 17.3333 9.59998V22.7333ZM16 26.6666C14.9333 25.8222 13.7778 25.1666 12.5333 24.7C11.2889 24.2333 10 24 8.66667 24C7.73333 24 6.81667 24.1222 5.91667 24.3666C5.01667 24.6111 4.15555 24.9555 3.33333 25.4C2.86667 25.6444 2.41667 25.6333 1.98333 25.3666C1.55 25.1 1.33333 24.7111 1.33333 24.2V8.13331C1.33333 7.88887 1.39444 7.65554 1.51667 7.43331C1.63889 7.21109 1.82222 7.04442 2.06667 6.93331C3.08889 6.39998 4.15555 5.99998 5.26667 5.73331C6.37778 5.46665 7.51111 5.33331 8.66667 5.33331C9.95555 5.33331 11.2167 5.49998 12.45 5.83331C13.6833 6.16665 14.8667 6.66665 16 7.33331C17.1333 6.66665 18.3167 6.16665 19.55 5.83331C20.7833 5.49998 22.0444 5.33331 23.3333 5.33331C24.4889 5.33331 25.6222 5.46665 26.7333 5.73331C27.8444 5.99998 28.9111 6.39998 29.9333 6.93331C30.1778 7.04442 30.3611 7.21109 30.4833 7.43331C30.6056 7.65554 30.6667 7.88887 30.6667 8.13331V24.2C30.6667 24.7111 30.45 25.1 30.0167 25.3666C29.5833 25.6333 29.1333 25.6444 28.6667 25.4C27.8444 24.9555 26.9833 24.6111 26.0833 24.3666C25.1833 24.1222 24.2667 24 23.3333 24C22 24 20.7111 24.2333 19.4667 24.7C18.2222 25.1666 17.0667 25.8222 16 26.6666Z" fill="#C76B88"/>
</svg>
