<svg width="32" height="32" viewBox="0 0 32 32" fill="none" xmlns="http://www.w3.org/2000/svg">
<path d="M25.3332 25.3333H10.6665C9.93317 25.3333 9.30539 25.0721 8.78317 24.5499C8.26095 24.0277 7.99984 23.3999 7.99984 22.6666V3.99992C7.99984 3.26659 8.26095 2.63881 8.78317 2.11659C9.30539 1.59436 9.93317 1.33325 10.6665 1.33325H19.9998L27.9998 9.33325V22.6666C27.9998 23.3999 27.7387 24.0277 27.2165 24.5499C26.6943 25.0721 26.0665 25.3333 25.3332 25.3333ZM18.6665 10.6666V3.99992H10.6665V22.6666H25.3332V10.6666H18.6665ZM5.33317 30.6666C4.59984 30.6666 3.97206 30.4055 3.44984 29.8833C2.92762 29.361 2.6665 28.7333 2.6665 27.9999V9.33325H5.33317V27.9999H19.9998V30.6666H5.33317Z" fill="#1C793D"/>
</svg>
