<svg width="32" height="32" viewBox="0 0 32 32" fill="none" xmlns="http://www.w3.org/2000/svg">
<g clip-path="url(#clip0_330_1232)">
<path d="M10.8412 9.26941L14.4318 5.66301V20.7002C14.4318 21.1159 14.5972 21.5149 14.8912 21.8089C15.1852 22.103 15.584 22.2682 15.9998 22.2682C16.4157 22.2682 16.8146 22.103 17.1086 21.8089C17.4026 21.5149 17.5678 21.1159 17.5678 20.7002V5.66301L21.1585 9.26941C21.3044 9.41647 21.4778 9.53301 21.6688 9.61261C21.86 9.69234 22.0649 9.73327 22.2718 9.73327C22.4788 9.73327 22.6837 9.69234 22.8749 9.61261C23.0658 9.53301 23.2393 9.41647 23.3852 9.26941C23.5321 9.12367 23.6488 8.95021 23.7284 8.75914C23.808 8.56807 23.8489 8.36314 23.8489 8.15621C23.8489 7.94914 23.808 7.74421 23.7284 7.55314C23.6488 7.36207 23.5321 7.18861 23.3852 7.04287L17.1132 0.770875C16.964 0.628208 16.7882 0.516208 16.5957 0.441675C16.2138 0.284741 15.7858 0.284741 15.404 0.441675C15.2114 0.516208 15.0357 0.628208 14.8865 0.770875L8.61449 7.04287C8.46836 7.18914 8.35236 7.36261 8.27329 7.55367C8.19409 7.74474 8.15342 7.94941 8.15342 8.15621C8.15342 8.36287 8.19409 8.56767 8.27329 8.75874C8.35236 8.94967 8.46836 9.12327 8.61449 9.26941C8.76076 9.41567 8.93436 9.53167 9.12529 9.61074C9.31636 9.68981 9.52102 9.73061 9.72782 9.73061C9.93462 9.73061 10.1393 9.68981 10.3304 9.61074C10.5213 9.53167 10.6949 9.41567 10.8412 9.26941ZM30.1118 19.1322C29.696 19.1322 29.2972 19.2974 29.0032 19.5914C28.7092 19.8854 28.5438 20.2843 28.5438 20.7002V26.9722C28.5438 27.3879 28.3786 27.7869 28.0846 28.0809C27.7906 28.375 27.3917 28.5402 26.9758 28.5402H5.02382C4.60796 28.5402 4.20916 28.375 3.91502 28.0809C3.62102 27.7869 3.45582 27.3879 3.45582 26.9722V20.7002C3.45582 20.2843 3.29062 19.8854 2.99662 19.5914C2.70249 19.2974 2.30369 19.1322 1.88782 19.1322C1.47196 19.1322 1.07316 19.2974 0.779024 19.5914C0.485024 19.8854 0.319824 20.2843 0.319824 20.7002V26.9722C0.319824 28.2198 0.815424 29.4162 1.69756 30.2983C2.57982 31.1805 3.77622 31.6762 5.02382 31.6762H26.9758C28.2233 31.6762 29.4198 31.1805 30.3021 30.2983C31.1842 29.4162 31.6798 28.2198 31.6798 26.9722V20.7002C31.6798 20.2843 31.5146 19.8854 31.2206 19.5914C30.9266 19.2974 30.5277 19.1322 30.1118 19.1322Z" fill="#B6325B"/>
</g>
<defs>
<clipPath id="clip0_330_1232">
<rect width="32" height="32" fill="white"/>
</clipPath>
</defs>
</svg>
