<svg width="130" height="71" viewBox="0 0 130 71" fill="none" xmlns="http://www.w3.org/2000/svg">
<path d="M92.5 46.25L49.6417 57.9667L12.95 46.5583C13.4639 45.6333 14.209 44.8368 15.1854 44.1688C16.1618 43.5007 17.2667 43.1667 18.5 43.1667H49.6417C52.4167 43.1667 54.6264 43.0639 56.2708 42.8583C57.9153 42.6528 59.6111 42.2417 61.3583 41.625L75.6958 36.8458L72.3042 24.8208L59.8167 28.9833C58.0694 29.4972 56.0139 29.9083 53.65 30.2167C51.2861 30.525 47.7917 30.7306 43.1667 30.8333C43.1667 29.7028 43.5007 28.6236 44.1687 27.5958C44.8368 26.5681 45.6333 25.9 46.5583 25.5917L82.6333 12.3333H92.5V46.25ZM129.5 67.8333V0H82.6333C81.9139 0 81.1944 0.0770841 80.475 0.231251C79.7556 0.385417 79.0875 0.56528 78.4708 0.770836L42.2417 14.1833C38.85 15.4167 36.1007 17.575 33.9938 20.6583C31.8868 23.7417 30.8333 27.1333 30.8333 30.8333H18.5C13.3611 30.8333 8.99305 32.5292 5.39583 35.9208C1.79861 39.3125 0 43.7833 0 49.3333V55.5L49.3333 70.9167L92.5 58.8917V67.8333H129.5ZM117.167 55.5H104.833V12.3333H117.167V55.5Z" fill="#1C793D"/>
</svg>
