<svg width="32" height="32" viewBox="0 0 32 32" fill="none" xmlns="http://www.w3.org/2000/svg">
<path d="M5.33333 28V15.5L2.93333 17.3333L1.33333 15.2L5.33333 12.1333V7.99998H8V10.1L16 3.99998L30.6667 15.2L29.0667 17.3L26.6667 15.5V28H5.33333ZM8 25.3333H14.6667V20H17.3333V25.3333H24V13.4666L16 7.36665L8 13.4666V25.3333ZM5.33333 6.66665C5.33333 5.55553 5.72222 4.61109 6.5 3.83331C7.27777 3.05554 8.22222 2.66665 9.33333 2.66665C9.71111 2.66665 10.0278 2.53887 10.2833 2.28331C10.5389 2.02776 10.6667 1.71109 10.6667 1.33331H13.3333C13.3333 2.44442 12.9444 3.38887 12.1667 4.16665C11.3889 4.94442 10.4444 5.33331 9.33333 5.33331C8.95555 5.33331 8.63888 5.46109 8.38333 5.71665C8.12777 5.9722 8 6.28887 8 6.66665H5.33333Z" fill="#796D19"/>
</svg>
