<svg width="32" height="32" viewBox="0 0 32 32" fill="none" xmlns="http://www.w3.org/2000/svg">
<g clip-path="url(#clip0_330_1230)">
<path d="M30.1118 19.1361C29.696 19.1361 29.2972 19.3014 29.0032 19.5954C28.7092 19.8894 28.5438 20.2882 28.5438 20.7041V26.9761C28.5438 27.3919 28.3786 27.7909 28.0846 28.0849C27.7906 28.3789 27.3917 28.5441 26.9758 28.5441H5.02382C4.60796 28.5441 4.20916 28.3789 3.91502 28.0849C3.62102 27.7909 3.45582 27.3919 3.45582 26.9761V20.7041C3.45582 20.2882 3.29062 19.8894 2.99662 19.5954C2.70249 19.3014 2.30369 19.1361 1.88782 19.1361C1.47196 19.1361 1.07316 19.3014 0.779024 19.5954C0.485024 19.8894 0.319824 20.2882 0.319824 20.7041V26.9761C0.319824 28.2235 0.815424 29.4201 1.69756 30.3023C2.57982 31.1845 3.77622 31.6801 5.02382 31.6801H26.9758C28.2233 31.6801 29.4198 31.1845 30.3021 30.3023C31.1842 29.4201 31.6798 28.2235 31.6798 26.9761V20.7041C31.6798 20.2882 31.5146 19.8894 31.2206 19.5954C30.9266 19.3014 30.5277 19.1361 30.1118 19.1361ZM14.8865 21.8174C15.0357 21.9601 15.2114 22.0719 15.404 22.1466C15.5917 22.2295 15.7946 22.2723 15.9998 22.2723C16.205 22.2723 16.408 22.2295 16.5957 22.1466C16.7882 22.0719 16.964 21.9601 17.1132 21.8174L23.3852 15.5454C23.6804 15.2501 23.8462 14.8497 23.8462 14.4321C23.8462 14.0145 23.6804 13.6141 23.3852 13.3187C23.0898 13.0235 22.6894 12.8577 22.2718 12.8577C21.8542 12.8577 21.4538 13.0235 21.1585 13.3187L17.5678 16.9251V1.88807C17.5678 1.4722 17.4026 1.0734 17.1086 0.779268C16.8146 0.485268 16.4157 0.320068 15.9998 0.320068C15.584 0.320068 15.1852 0.485268 14.8912 0.779268C14.5972 1.0734 14.4318 1.4722 14.4318 1.88807V16.9251L10.8412 13.3187C10.6949 13.1726 10.5213 13.0566 10.3304 12.9774C10.1393 12.8985 9.93462 12.8577 9.72782 12.8577C9.52102 12.8577 9.31636 12.8985 9.12529 12.9774C8.93436 13.0566 8.76076 13.1726 8.61449 13.3187C8.46836 13.4649 8.35236 13.6385 8.27329 13.8297C8.19409 14.0206 8.15342 14.2253 8.15342 14.4321C8.15342 14.6389 8.19409 14.8435 8.27329 15.0345C8.35236 15.2257 8.46836 15.3993 8.61449 15.5454L14.8865 21.8174Z" fill="#B6325B"/>
</g>
<defs>
<clipPath id="clip0_330_1230">
<rect width="32" height="32" fill="white"/>
</clipPath>
</defs>
</svg>
