<svg width="32" height="32" viewBox="0 0 32 32" fill="none" xmlns="http://www.w3.org/2000/svg">
<path d="M14.6665 22.6668H17.3331V14.6668H14.6665V22.6668ZM15.9998 12.0001C16.3776 12.0001 16.6942 11.8723 16.9498 11.6168C17.2054 11.3612 17.3331 11.0445 17.3331 10.6668C17.3331 10.289 17.2054 9.9723 16.9498 9.71675C16.6942 9.46119 16.3776 9.33341 15.9998 9.33341C15.622 9.33341 15.3054 9.46119 15.0498 9.71675C14.7942 9.9723 14.6665 10.289 14.6665 10.6668C14.6665 11.0445 14.7942 11.3612 15.0498 11.6168C15.3054 11.8723 15.622 12.0001 15.9998 12.0001ZM15.9998 29.3334C14.1554 29.3334 12.422 28.9834 10.7998 28.2834C9.17761 27.5834 7.7665 26.6334 6.5665 25.4334C5.3665 24.2334 4.4165 22.8223 3.7165 21.2001C3.0165 19.5779 2.6665 17.8445 2.6665 16.0001C2.6665 14.1556 3.0165 12.4223 3.7165 10.8001C4.4165 9.17786 5.3665 7.76675 6.5665 6.56675C7.7665 5.36675 9.17761 4.41675 10.7998 3.71675C12.422 3.01675 14.1554 2.66675 15.9998 2.66675C17.8442 2.66675 19.5776 3.01675 21.1998 3.71675C22.822 4.41675 24.2331 5.36675 25.4331 6.56675C26.6331 7.76675 27.5831 9.17786 28.2831 10.8001C28.9831 12.4223 29.3331 14.1556 29.3331 16.0001C29.3331 17.8445 28.9831 19.5779 28.2831 21.2001C27.5831 22.8223 26.6331 24.2334 25.4331 25.4334C24.2331 26.6334 22.822 27.5834 21.1998 28.2834C19.5776 28.9834 17.8442 29.3334 15.9998 29.3334ZM15.9998 26.6668C18.9776 26.6668 21.4998 25.6334 23.5665 23.5668C25.6331 21.5001 26.6665 18.9779 26.6665 16.0001C26.6665 13.0223 25.6331 10.5001 23.5665 8.43341C21.4998 6.36675 18.9776 5.33341 15.9998 5.33341C13.022 5.33341 10.4998 6.36675 8.43316 8.43341C6.3665 10.5001 5.33316 13.0223 5.33316 16.0001C5.33316 18.9779 6.3665 21.5001 8.43316 23.5668C10.4998 25.6334 13.022 26.6668 15.9998 26.6668Z" fill="#D9DCD7"/>
</svg>
