<svg width="32" height="32" viewBox="0 0 32 32" fill="none" xmlns="http://www.w3.org/2000/svg">
<path d="M15.8333 26.6667C15.9222 26.6667 16.0111 26.6445 16.1 26.6C16.1889 26.5556 16.2556 26.5111 16.3 26.4667L27.2333 15.5334C27.5 15.2667 27.6944 14.9667 27.8167 14.6334C27.9389 14.3 28 13.9667 28 13.6334C28 13.2778 27.9389 12.9389 27.8167 12.6167C27.6944 12.2945 27.5 12.0111 27.2333 11.7667L21.5667 6.10002C21.3222 5.83335 21.0389 5.63891 20.7167 5.51669C20.3944 5.39446 20.0556 5.33335 19.7 5.33335C19.3667 5.33335 19.0333 5.39446 18.7 5.51669C18.3667 5.63891 18.0667 5.83335 17.8 6.10002L17.4333 6.46669L19.9 8.96669C20.2333 9.2778 20.4778 9.63335 20.6333 10.0334C20.7889 10.4334 20.8667 10.8556 20.8667 11.3C20.8667 12.2334 20.55 13.0167 19.9167 13.65C19.2833 14.2834 18.5 14.6 17.5667 14.6C17.1222 14.6 16.6944 14.5222 16.2833 14.3667C15.8722 14.2111 15.5111 13.9778 15.2 13.6667L12.7 11.2L6.86667 17.0334C6.8 17.1 6.75 17.1722 6.71667 17.25C6.68333 17.3278 6.66667 17.4111 6.66667 17.5C6.66667 17.6778 6.73333 17.8389 6.86667 17.9834C7 18.1278 7.15555 18.2 7.33333 18.2C7.42222 18.2 7.51111 18.1778 7.6 18.1334C7.68889 18.0889 7.75555 18.0445 7.8 18L12.3333 13.4667L14.2 15.3334L9.7 19.8667C9.63333 19.9334 9.58333 20.0056 9.55 20.0834C9.51667 20.1611 9.5 20.2445 9.5 20.3334C9.5 20.5111 9.56667 20.6667 9.7 20.8C9.83333 20.9334 9.98889 21 10.1667 21C10.2556 21 10.3444 20.9778 10.4333 20.9334C10.5222 20.8889 10.5889 20.8445 10.6333 20.8L15.1667 16.3L17.0333 18.1667L12.5333 22.7C12.4667 22.7445 12.4167 22.8111 12.3833 22.9C12.35 22.9889 12.3333 23.0778 12.3333 23.1667C12.3333 23.3445 12.4 23.5 12.5333 23.6334C12.6667 23.7667 12.8222 23.8334 13 23.8334C13.0889 23.8334 13.1722 23.8167 13.25 23.7834C13.3278 23.75 13.4 23.7 13.4667 23.6334L18 19.1334L19.8667 21L15.3333 25.5334C15.2667 25.6 15.2167 25.6722 15.1833 25.75C15.15 25.8278 15.1333 25.9111 15.1333 26C15.1333 26.1778 15.2056 26.3334 15.35 26.4667C15.4944 26.6 15.6556 26.6667 15.8333 26.6667ZM15.8 29.3334C14.9778 29.3334 14.25 29.0611 13.6167 28.5167C12.9833 27.9722 12.6111 27.2889 12.5 26.4667C11.7444 26.3556 11.1111 26.0445 10.6 25.5334C10.0889 25.0222 9.77778 24.3889 9.66667 23.6334C8.91111 23.5222 8.28333 23.2056 7.78333 22.6834C7.28333 22.1611 6.97778 21.5334 6.86667 20.8C6.02222 20.6889 5.33333 20.3222 4.8 19.7C4.26667 19.0778 4 18.3445 4 17.5C4 17.0556 4.08333 16.6278 4.25 16.2167C4.41667 15.8056 4.65556 15.4445 4.96667 15.1334L12.7 7.43335L17.0667 11.8C17.1111 11.8667 17.1778 11.9167 17.2667 11.95C17.3556 11.9834 17.4444 12 17.5333 12C17.7333 12 17.9 11.9389 18.0333 11.8167C18.1667 11.6945 18.2333 11.5334 18.2333 11.3334C18.2333 11.2445 18.2167 11.1556 18.1833 11.0667C18.15 10.9778 18.1 10.9111 18.0333 10.8667L13.2667 6.10002C13.0222 5.83335 12.7389 5.63891 12.4167 5.51669C12.0944 5.39446 11.7556 5.33335 11.4 5.33335C11.0667 5.33335 10.7333 5.39446 10.4 5.51669C10.0667 5.63891 9.76667 5.83335 9.5 6.10002L4.8 10.8334C4.6 11.0334 4.43333 11.2667 4.3 11.5334C4.16667 11.8 4.07778 12.0667 4.03333 12.3334C3.98889 12.6 3.98889 12.8722 4.03333 13.15C4.07778 13.4278 4.16667 13.6889 4.3 13.9334L2.36667 15.8667C1.98889 15.3556 1.71111 14.7945 1.53333 14.1834C1.35556 13.5722 1.28889 12.9556 1.33333 12.3334C1.37778 11.7111 1.53333 11.1056 1.8 10.5167C2.06667 9.9278 2.43333 9.40002 2.9 8.93335L7.6 4.23335C8.13333 3.72224 8.72778 3.33335 9.38333 3.06669C10.0389 2.80002 10.7111 2.66669 11.4 2.66669C12.0889 2.66669 12.7611 2.80002 13.4167 3.06669C14.0722 3.33335 14.6556 3.72224 15.1667 4.23335L15.5333 4.60002L15.9 4.23335C16.4333 3.72224 17.0278 3.33335 17.6833 3.06669C18.3389 2.80002 19.0111 2.66669 19.7 2.66669C20.3889 2.66669 21.0611 2.80002 21.7167 3.06669C22.3722 3.33335 22.9556 3.72224 23.4667 4.23335L29.1 9.86669C29.6111 10.3778 30 10.9667 30.2667 11.6334C30.5333 12.3 30.6667 12.9778 30.6667 13.6667C30.6667 14.3556 30.5333 15.0278 30.2667 15.6834C30 16.3389 29.6111 16.9222 29.1 17.4334L18.1667 28.3334C17.8556 28.6445 17.4944 28.8889 17.0833 29.0667C16.6722 29.2445 16.2444 29.3334 15.8 29.3334Z" fill="#9C3F21"/>
</svg>
