<svg width="72" height="72" viewBox="0 0 72 72" fill="none" xmlns="http://www.w3.org/2000/svg">
<path d="M35.625 60C35.825 60 36.025 59.95 36.225 59.85C36.425 59.75 36.575 59.65 36.675 59.55L61.275 34.95C61.875 34.35 62.3125 33.675 62.5875 32.925C62.8625 32.175 63 31.425 63 30.675C63 29.875 62.8625 29.1125 62.5875 28.3875C62.3125 27.6625 61.875 27.025 61.275 26.475L48.525 13.725C47.975 13.125 47.3375 12.6875 46.6125 12.4125C45.8875 12.1375 45.125 12 44.325 12C43.575 12 42.825 12.1375 42.075 12.4125C41.325 12.6875 40.65 13.125 40.05 13.725L39.225 14.55L44.775 20.175C45.525 20.875 46.075 21.675 46.425 22.575C46.775 23.475 46.95 24.425 46.95 25.425C46.95 27.525 46.2375 29.2875 44.8125 30.7125C43.3875 32.1375 41.625 32.85 39.525 32.85C38.525 32.85 37.5625 32.675 36.6375 32.325C35.7125 31.975 34.9 31.45 34.2 30.75L28.575 25.2L15.45 38.325C15.3 38.475 15.1875 38.6375 15.1125 38.8125C15.0375 38.9875 15 39.175 15 39.375C15 39.775 15.15 40.1375 15.45 40.4625C15.75 40.7875 16.1 40.95 16.5 40.95C16.7 40.95 16.9 40.9 17.1 40.8C17.3 40.7 17.45 40.6 17.55 40.5L27.75 30.3L31.95 34.5L21.825 44.7C21.675 44.85 21.5625 45.0125 21.4875 45.1875C21.4125 45.3625 21.375 45.55 21.375 45.75C21.375 46.15 21.525 46.5 21.825 46.8C22.125 47.1 22.475 47.25 22.875 47.25C23.075 47.25 23.275 47.2 23.475 47.1C23.675 47 23.825 46.9 23.925 46.8L34.125 36.675L38.325 40.875L28.2 51.075C28.05 51.175 27.9375 51.325 27.8625 51.525C27.7875 51.725 27.75 51.925 27.75 52.125C27.75 52.525 27.9 52.875 28.2 53.175C28.5 53.475 28.85 53.625 29.25 53.625C29.45 53.625 29.6375 53.5875 29.8125 53.5125C29.9875 53.4375 30.15 53.325 30.3 53.175L40.5 43.05L44.7 47.25L34.5 57.45C34.35 57.6 34.2375 57.7625 34.1625 57.9375C34.0875 58.1125 34.05 58.3 34.05 58.5C34.05 58.9 34.2125 59.25 34.5375 59.55C34.8625 59.85 35.225 60 35.625 60ZM35.55 66C33.7 66 32.0625 65.3875 30.6375 64.1625C29.2125 62.9375 28.375 61.4 28.125 59.55C26.425 59.3 25 58.6 23.85 57.45C22.7 56.3 22 54.875 21.75 53.175C20.05 52.925 18.6375 52.2125 17.5125 51.0375C16.3875 49.8625 15.7 48.45 15.45 46.8C13.55 46.55 12 45.725 10.8 44.325C9.6 42.925 9 41.275 9 39.375C9 38.375 9.1875 37.4125 9.5625 36.4875C9.9375 35.5625 10.475 34.75 11.175 34.05L28.575 16.725L38.4 26.55C38.5 26.7 38.65 26.8125 38.85 26.8875C39.05 26.9625 39.25 27 39.45 27C39.9 27 40.275 26.8625 40.575 26.5875C40.875 26.3125 41.025 25.95 41.025 25.5C41.025 25.3 40.9875 25.1 40.9125 24.9C40.8375 24.7 40.725 24.55 40.575 24.45L29.85 13.725C29.3 13.125 28.6625 12.6875 27.9375 12.4125C27.2125 12.1375 26.45 12 25.65 12C24.9 12 24.15 12.1375 23.4 12.4125C22.65 12.6875 21.975 13.125 21.375 13.725L10.8 24.375C10.35 24.825 9.975 25.35 9.675 25.95C9.375 26.55 9.175 27.15 9.075 27.75C8.975 28.35 8.975 28.9625 9.075 29.5875C9.175 30.2125 9.375 30.8 9.675 31.35L5.325 35.7C4.475 34.55 3.85 33.2875 3.45 31.9125C3.05 30.5375 2.9 29.15 3 27.75C3.1 26.35 3.45 24.9875 4.05 23.6625C4.65 22.3375 5.475 21.15 6.525 20.1L17.1 9.525C18.3 8.375 19.6375 7.5 21.1125 6.9C22.5875 6.3 24.1 6 25.65 6C27.2 6 28.7125 6.3 30.1875 6.9C31.6625 7.5 32.975 8.375 34.125 9.525L34.95 10.35L35.775 9.525C36.975 8.375 38.3125 7.5 39.7875 6.9C41.2625 6.3 42.775 6 44.325 6C45.875 6 47.3875 6.3 48.8625 6.9C50.3375 7.5 51.65 8.375 52.8 9.525L65.475 22.2C66.625 23.35 67.5 24.675 68.1 26.175C68.7 27.675 69 29.2 69 30.75C69 32.3 68.7 33.8125 68.1 35.2875C67.5 36.7625 66.625 38.075 65.475 39.225L40.875 63.75C40.175 64.45 39.3625 65 38.4375 65.4C37.5125 65.8 36.55 66 35.55 66Z" fill="#2A6085"/>
</svg>
