<svg width="1687" height="1336" viewBox="0 0 1687 1336" fill="none" xmlns="http://www.w3.org/2000/svg">
<path d="M843.5 1336C1309.13 1336 1686.6 1321.31 1686.6 1303.2C1686.6 1285.08 1309.13 1270.4 843.5 1270.4C377.869 1270.4 0.399902 1285.08 0.399902 1303.2C0.399902 1321.31 377.869 1336 843.5 1336Z" fill="#D2CCBE"/>
<path d="M1220.6 729.6H745.8C737.7 729.6 731.1 723 731.1 714.9V574.2C731.1 566.1 737.7 559.5 745.8 559.5H1220.6C1240.4 559.5 1256.4 575.5 1256.4 595.3V693.9C1256.4 713.6 1240.4 729.6 1220.6 729.6Z" fill="#4F96B2"/>
<path d="M1256.1 590.5C1254 573 1240.7 559.4 1224.6 559.4H731.1V590.5H1256.1Z" fill="#63BBD6"/>
<path d="M1256.1 698.5C1254 716 1240.7 729.6 1224.6 729.6H731.1V698.5H1256.1Z" fill="#326777"/>
<path d="M954.9 559.4H897C916.8 559.4 932.8 575.4 932.8 595.2V693.8C932.8 713.6 916.8 729.6 897 729.6H954.9C974.7 729.6 990.7 713.6 990.7 693.8V595.2C990.7 575.5 974.7 559.4 954.9 559.4Z" fill="#9CCBDB"/>
<path d="M1044.8 559.4H986.9C1006.7 559.4 1022.7 575.4 1022.7 595.2V693.8C1022.7 713.6 1006.7 729.6 986.9 729.6H1044.8C1064.6 729.6 1080.6 713.6 1080.6 693.8V595.2C1080.5 575.5 1064.5 559.4 1044.8 559.4Z" fill="#9CCBDB"/>
<path d="M772.2 559.4H531V582.2H542.9V706.7H531V729.5H772.2C812.6 729.5 845.3 696.8 845.3 656.4V632.4C845.3 592.2 812.6 559.4 772.2 559.4Z" fill="#418093"/>
<path d="M769.4 582.3H542.8V706.8H769.4C797.4 706.8 820.2 684.1 820.2 656V633C820.2 605 797.4 582.3 769.4 582.3Z" fill="#F6F4E8"/>
<path d="M788.4 594.4H542.8V598.4H788.4V594.4Z" fill="#D1CDCA"/>
<path d="M788.4 619.7H542.8V623.7H788.4V619.7Z" fill="#D1CDCA"/>
<path d="M788.4 643.1H542.8V647.1H788.4V643.1Z" fill="#D1CDCA"/>
<path d="M788.4 668.4H542.8V672.4H788.4V668.4Z" fill="#D1CDCA"/>
<path d="M788.4 690.6H542.8V694.6H788.4V690.6Z" fill="#D1CDCA"/>
<path d="M66.5997 1253.3L137.7 783.9C138.9 775.9 146.4 770.3 154.5 771.6L293.6 792.7C301.6 793.9 307.2 801.4 305.9 809.5L234.8 1278.9C231.8 1298.4 213.6 1311.9 194.1 1308.9L96.5997 1294.1C77.0997 1291.1 63.5997 1272.8 66.5997 1253.3Z" fill="#96519B"/>
<path d="M198.8 1309.2C216.5 1309.8 231.8 1298.7 234.3 1282.7L308.2 794.8L277.5 790.1L198.8 1309.2Z" fill="#A854AF"/>
<path d="M91.9998 1293C74.9998 1288.3 63.5998 1273.2 65.9998 1257.2L139.9 769.3L170.6 774L91.9998 1293Z" fill="#6E4472"/>
<path d="M274.6 1016.1L283.3 958.9C280.3 978.4 262.1 991.9 242.6 988.9L145.1 974.1C125.6 971.1 112.1 952.9 115.1 933.4L106.4 990.6C103.4 1010.1 116.9 1028.4 136.4 1031.3L233.9 1046.1C253.4 1049.1 271.7 1035.6 274.6 1016.1Z" fill="#BC7EC1"/>
<path d="M261.2 1104.9L269.9 1047.7C266.9 1067.2 248.7 1080.7 229.2 1077.7L131.7 1062.9C112.2 1059.9 98.6999 1041.7 101.7 1022.2L92.9999 1079.4C89.9999 1098.9 103.5 1117.2 123 1120.1L220.5 1134.9C240 1137.9 258.2 1124.4 261.2 1104.9Z" fill="#BC7EC1"/>
<path d="M302 835.4L338.1 596.9L315.5 593.5L313.7 605.2L190.6 586.6L192.4 574.9L169.8 571.5L133.7 810C127.7 849.9 155.1 887.2 195 893.2L218.7 896.8C258.7 902.8 295.9 875.4 302 835.4Z" fill="#68376D"/>
<path d="M279.8 829.2L313.7 605.2L190.6 586.6L156.7 810.6C152.5 838.3 171.6 864.2 199.3 868.4L222 871.8C249.8 876 275.6 857 279.8 829.2Z" fill="#F6F4E8"/>
<path d="M264.974 846.277L301.765 603.453L297.81 602.853L261.019 845.678L264.974 846.277Z" fill="#D1CDCA"/>
<path d="M240.002 842.484L276.793 599.659L272.838 599.06L236.048 841.885L240.002 842.484Z" fill="#D1CDCA"/>
<path d="M216.892 838.903L253.683 596.078L249.728 595.479L212.937 838.303L216.892 838.903Z" fill="#D1CDCA"/>
<path d="M191.904 835.206L228.695 592.382L224.74 591.782L187.949 834.607L191.904 835.206Z" fill="#D1CDCA"/>
<path d="M169.934 831.83L206.725 589.005L202.77 588.406L165.979 831.231L169.934 831.83Z" fill="#D1CDCA"/>
<path d="M592.7 916.4H1118.8C1126.9 916.4 1133.5 909.8 1133.5 901.7V744.4C1133.5 736.3 1126.9 729.7 1118.8 729.7H592.7C572.9 729.7 556.9 745.7 556.9 765.5V880.7C556.9 900.4 573 916.4 592.7 916.4Z" fill="#774B1C"/>
<path d="M557.3 763.7C559.6 744.4 574.2 729.6 591.9 729.6H1133.6V763.7H557.3Z" fill="#99612E"/>
<path d="M557.3 882.3C559.6 901.6 574.2 916.4 591.9 916.4H1133.6V882.3H557.3Z" fill="#543315"/>
<path d="M645.5 729.6H664.2C642.5 729.6 624.9 747.2 624.9 768.9V877.1C624.9 898.8 642.5 916.4 664.2 916.4H645.5C623.8 916.4 606.2 898.8 606.2 877.1V768.9C606.2 747.2 623.8 729.6 645.5 729.6Z" fill="#B77C4B"/>
<path d="M696.2 729.6H714.9C693.2 729.6 675.6 747.2 675.6 768.9V877.1C675.6 898.8 693.2 916.4 714.9 916.4H696.2C674.5 916.4 656.9 898.8 656.9 877.1V768.9C656.9 747.2 674.5 729.6 696.2 729.6Z" fill="#B77C4B"/>
<path d="M933 729.6H951.7C930 729.6 912.4 747.2 912.4 768.9V877.1C912.4 898.8 930 916.4 951.7 916.4H933C911.3 916.4 893.7 898.8 893.7 877.1V768.9C893.7 747.2 911.3 729.6 933 729.6Z" fill="#B77C4B"/>
<path d="M983.7 729.6H1002.4C980.7 729.6 963.1 747.2 963.1 768.9V877.1C963.1 898.8 980.7 916.4 1002.4 916.4H983.7C962 916.4 944.4 898.8 944.4 877.1V768.9C944.4 747.2 962 729.6 983.7 729.6Z" fill="#B77C4B"/>
<path d="M1088.4 729.6H1353.2V754.7H1340.2V891.3H1353.2V916.4H1088.4C1044.1 916.4 1008.2 880.5 1008.2 836.2V809.9C1008.1 765.5 1044.1 729.6 1088.4 729.6Z" fill="#513114"/>
<path d="M1091.5 754.7H1340.2V891.3H1091.5C1060.7 891.3 1035.8 866.4 1035.8 835.6V810.4C1035.7 779.6 1060.7 754.7 1091.5 754.7Z" fill="#F7EEC4"/>
<path d="M1340.2 768H1070.6V772.4H1340.2V768Z" fill="#D3C99F"/>
<path d="M1340.2 795.8H1070.6V800.2H1340.2V795.8Z" fill="#D3C99F"/>
<path d="M1340.2 821.4H1070.6V825.8H1340.2V821.4Z" fill="#D3C99F"/>
<path d="M1340.2 849.2H1070.6V853.6H1340.2V849.2Z" fill="#D3C99F"/>
<path d="M1340.2 873.6H1070.6V878H1340.2V873.6Z" fill="#D3C99F"/>
<path d="M1268.3 408.2H777.8C769.7 408.2 763.1 401.6 763.1 393.5V252.8C763.1 244.7 769.7 238.1 777.8 238.1H1268.3C1279.4 238.1 1288.4 247.1 1288.4 258.2V388.1C1288.4 399.2 1279.4 408.2 1268.3 408.2Z" fill="#DD9F32"/>
<path d="M767.4 242.4V275H1288.5V258.1C1288.5 247 1279.5 238 1268.4 238H777.9C773.8 238.1 770 239.7 767.4 242.4Z" fill="#EDAB4C"/>
<path d="M767.4 403.8V371.2H1288.5V388.1C1288.5 399.2 1279.5 408.2 1268.4 408.2H777.9C773.8 408.2 770 406.5 767.4 403.8Z" fill="#C48622"/>
<path d="M855.1 238.1H563V260.9H574.9V385.4H563V408.2H855.1C867.4 408.2 877.3 398.3 877.3 386V260.3C877.4 248 867.4 238.1 855.1 238.1Z" fill="#A36B19"/>
<path d="M839 260.9H574.9V385.4H839C846.3 385.4 852.2 379.5 852.2 372.2V274.1C852.2 266.8 846.3 260.9 839 260.9Z" fill="#F6F4E8"/>
<path d="M820.5 273.1H574.9V277.1H820.5V273.1Z" fill="#D1CDCA"/>
<path d="M820.5 298.3H574.9V302.3H820.5V298.3Z" fill="#D1CDCA"/>
<path d="M820.5 321.7H574.9V325.7H820.5V321.7Z" fill="#D1CDCA"/>
<path d="M820.5 347H574.9V351H820.5V347Z" fill="#D1CDCA"/>
<path d="M820.5 369.2H574.9V373.2H820.5V369.2Z" fill="#D1CDCA"/>
<path d="M1210.1 346.5H1039.3C1031.8 346.5 1025.7 340.4 1025.7 332.9V310.6C1025.7 303.1 1031.8 297 1039.3 297H1210.1C1217.6 297 1223.7 303.1 1223.7 310.6V332.9C1223.7 340.4 1217.6 346.5 1210.1 346.5Z" fill="#E6B765"/>
<path d="M966.2 346.5H943.9C936.4 346.5 930.3 340.4 930.3 332.9V310.6C930.3 303.1 936.4 297 943.9 297H966.2C973.7 297 979.8 303.1 979.8 310.6V332.9C979.8 340.4 973.7 346.5 966.2 346.5Z" fill="#E6B765"/>
<path d="M1371.4 1306.2H815.4C806.2 1306.2 798.7 1298.7 798.7 1289.5V1130C798.7 1120.8 806.2 1113.3 815.4 1113.3H1371.4C1384 1113.3 1394.2 1123.5 1394.2 1136.1V1283.4C1394.2 1295.9 1384 1306.2 1371.4 1306.2Z" fill="#EF6352"/>
<path d="M803.5 1118.2V1155.2H1394.2V1136C1394.2 1123.4 1384 1113.2 1371.4 1113.2H815.4C810.8 1113.2 806.6 1115.1 803.5 1118.2Z" fill="#FC877E"/>
<path d="M803.5 1301.2V1264.2H1394.2V1283.4C1394.2 1296 1384 1306.2 1371.4 1306.2H815.4C810.8 1306.2 806.6 1304.2 803.5 1301.2Z" fill="#D35248"/>
<path d="M903 1113.2H571.9V1139.1H585.3V1280.2H571.9V1306.1H903C916.9 1306.1 928.2 1294.8 928.2 1280.9V1138.4C928.2 1124.5 916.9 1113.2 903 1113.2Z" fill="#CC4E44"/>
<path d="M884.7 1139.1H585.3V1280.2H884.7C893 1280.2 899.7 1273.5 899.7 1265.2V1154C899.7 1145.8 893 1139.1 884.7 1139.1Z" fill="#F6F4E8"/>
<path d="M863.7 1152.9H585.3V1157.5H863.7V1152.9Z" fill="#D1CDCA"/>
<path d="M863.7 1181.6H585.3V1186.2H863.7V1181.6Z" fill="#D1CDCA"/>
<path d="M863.7 1208.1H585.3V1212.7H863.7V1208.1Z" fill="#D1CDCA"/>
<path d="M863.7 1236.7H585.3V1241.3H863.7V1236.7Z" fill="#D1CDCA"/>
<path d="M863.7 1261.9H585.3V1266.5H863.7V1261.9Z" fill="#D1CDCA"/>
<path d="M1305.5 1236.1H1111.9C1103.4 1236.1 1096.5 1229.2 1096.5 1220.7V1195.4C1096.5 1186.9 1103.4 1180 1111.9 1180H1305.5C1314 1180 1320.9 1186.9 1320.9 1195.4V1220.7C1320.9 1229.2 1314 1236.1 1305.5 1236.1Z" fill="#F28A7D"/>
<path d="M1028.9 1236.1H1003.6C995.1 1236.1 988.2 1229.2 988.2 1220.7V1195.4C988.2 1186.9 995.1 1180 1003.6 1180H1028.9C1037.4 1180 1044.3 1186.9 1044.3 1195.4V1220.7C1044.3 1229.2 1037.4 1236.1 1028.9 1236.1Z" fill="#F28A7D"/>
<path d="M1281.4 559.4H849.4C841.3 559.4 834.7 552.8 834.7 544.7V422.9C834.7 414.8 841.3 408.2 849.4 408.2H1281.4C1292.5 408.2 1301.5 417.2 1301.5 428.3V539.3C1301.5 550.4 1292.5 559.4 1281.4 559.4Z" fill="#6E995B"/>
<path d="M838.5 412.1V441.1H1301.5V426.1C1301.5 416.2 1293.5 408.2 1283.6 408.2H847.8C844.2 408.2 840.9 409.7 838.5 412.1Z" fill="#8EBC77"/>
<path d="M838.5 555.5V526.5H1301.5V541.5C1301.5 551.4 1293.5 559.4 1283.6 559.4H847.8C844.2 559.4 840.9 557.9 838.5 555.5Z" fill="#4C6D3A"/>
<path d="M916.5 408.2H656.9V428.5H667.4V539.1H656.9V559.4H916.5C927.4 559.4 936.2 550.6 936.2 539.7V428C936.2 417.1 927.4 408.2 916.5 408.2Z" fill="#375127"/>
<path d="M902.2 428.5H667.4V539.1H902.1C908.6 539.1 913.8 533.8 913.8 527.4V440.2C913.9 433.8 908.6 428.5 902.2 428.5Z" fill="#F6F4E8"/>
<path d="M885.6 450.5H667.4V454.1H885.6V450.5Z" fill="#D1CDCA"/>
<path d="M885.6 476H667.4V479.6H885.6V476Z" fill="#D1CDCA"/>
<path d="M885.6 498.5H667.4V502.1H885.6V498.5Z" fill="#D1CDCA"/>
<path d="M885.6 518.2H667.4V521.8H885.6V518.2Z" fill="#D1CDCA"/>
<path d="M1227.2 504.6H1085C1075.7 504.6 1068.2 497.1 1068.2 487.8V477.5C1068.2 468.2 1075.7 460.7 1085 460.7H1227.2C1236.5 460.7 1244 468.2 1244 477.5V487.8C1244 497 1236.5 504.6 1227.2 504.6Z" fill="#B4DBA1"/>
<path d="M1010.4 504.6H1000.1C990.8 504.6 983.3 497.1 983.3 487.8V477.5C983.3 468.2 990.8 460.7 1000.1 460.7H1010.4C1019.7 460.7 1027.2 468.2 1027.2 477.5V487.8C1027.3 497 1019.7 504.6 1010.4 504.6Z" fill="#B4DBA1"/>
<path d="M341.3 1281.1V744C341.3 733.9 349.5 725.7 359.6 725.7H511C521.1 725.7 529.3 733.9 529.3 744V1281.2C529.3 1295 518.1 1306.2 504.3 1306.2H366.3C352.5 1306.2 341.3 1295 341.3 1281.1Z" fill="#22B3B8"/>
<path d="M524.5 730.4H488.4V1306.2H507.1C519.4 1306.2 529.3 1296.2 529.3 1284V742C529.3 737.4 527.5 733.3 524.5 730.4Z" fill="#47D6D6"/>
<path d="M346.1 730.4H382.2V1306.2H363.5C351.2 1306.2 341.3 1296.2 341.3 1284V742C341.3 737.4 343.2 733.3 346.1 730.4Z" fill="#199B9B"/>
<path d="M529.3 827.3V504.6H504.1V517.7H366.5V504.6H341.3V827.4C341.3 841 352.3 852 365.9 852H504.8C518.4 851.9 529.3 840.9 529.3 827.3Z" fill="#188481"/>
<path d="M504.1 809.5V517.7H366.5V809.6C366.5 817.7 373 824.2 381.1 824.2H489.5C497.6 824.1 504.1 817.6 504.1 809.5Z" fill="#F6F4E8"/>
<path d="M476.8 517.7H472.4V789.1H476.8V517.7Z" fill="#D1CDCA"/>
<path d="M445 517.7H440.6V789.1H445V517.7Z" fill="#D1CDCA"/>
<path d="M417.1 517.7H412.7V789.1H417.1V517.7Z" fill="#D1CDCA"/>
<path d="M392.5 517.7H388.1V789.1H392.5V517.7Z" fill="#D1CDCA"/>
<path d="M409.6 1203.6V941.1C409.6 923.9 419 910 430.5 910H443.3C454.9 910 464.2 923.9 464.2 941.1V1203.6C464.2 1220.8 454.8 1234.7 443.3 1234.7H430.5C418.9 1234.6 409.6 1220.7 409.6 1203.6Z" fill="#F9C03B"/>
<path d="M805.6 238.1H1173.3V125.6H805.6C792.5 125.6 781.9 136.2 781.9 149.3V214.4C781.9 227.4 792.5 238.1 805.6 238.1Z" fill="#EF6352"/>
<path d="M782.1 146.1C783.6 134.5 793.5 125.5 805.6 125.5H1173.3V146.1H782.1Z" fill="#F58172"/>
<path d="M782.1 217.5C783.6 229.1 793.5 238.1 805.6 238.1H1173.3V217.5H782.1Z" fill="#CC4040"/>
<path d="M1167 238.1H1419.7V125.6H1167C1153.9 125.6 1143.3 136.2 1143.3 149.3V214.4C1143.3 227.4 1153.9 238.1 1167 238.1Z" fill="#F6F4E8"/>
<path d="M1409.3 151.5H1159.6V153.9H1409.3V151.5Z" fill="#D1CDCA"/>
<path d="M1409.3 166.8H1159.6V169.2H1409.3V166.8Z" fill="#D1CDCA"/>
<path d="M1409.3 181H1159.6V183.4H1409.3V181Z" fill="#D1CDCA"/>
<path d="M1409.3 196.2H1159.6V198.6H1409.3V196.2Z" fill="#D1CDCA"/>
<path d="M1409.3 209.6H1159.6V212H1409.3V209.6Z" fill="#D1CDCA"/>
<path d="M1167 125.6H1443.7V140.4H1185.7C1172.6 140.4 1162 151 1162 164.1V199.5C1162 212.6 1172.6 223.2 1185.7 223.2H1443.7V238H1167C1153.9 238 1143.3 227.4 1143.3 214.3V149.2C1143.3 136.2 1153.9 125.6 1167 125.6Z" fill="#E24D46"/>
<path d="M1059.4 163.1H873.6V194.9H1059.4V163.1Z" fill="#F29891"/>
<path d="M1246.2 125.6H700.5C689.1 125.6 679.8 116.3 679.8 104.9V21.3999C679.8 9.99993 689.1 0.699951 700.5 0.699951H1246.2C1257.6 0.699951 1266.9 9.99993 1266.9 21.3999V104.9C1266.9 116.3 1257.7 125.6 1246.2 125.6Z" fill="#EF788B"/>
<path d="M1266.9 104.9V103.1H679.8V104.9C679.8 116.3 689.1 125.6 700.5 125.6H1246.2C1257.7 125.6 1266.9 116.3 1266.9 104.9Z" fill="#D16278"/>
<path d="M809.9 0.699951H771.8V125.6H809.9V0.699951Z" fill="#F2C0CC"/>
<path d="M872.8 0.699951H834.7V125.6H872.8V0.699951Z" fill="#F2C0CC"/>
<path d="M1096.7 0.699951H1058.6V125.6H1096.7V0.699951Z" fill="#F2C0CC"/>
<path d="M1159.6 0.699951H1121.5V125.6H1159.6V0.699951Z" fill="#F2C0CC"/>
<path d="M1631.8 1216.2L1558.2 831.3L1530.2 836.6L1533 851.1L1380.5 880.3L1377.7 865.8L1349.8 871.1L1423.4 1256.1L1631.8 1216.2Z" fill="#8FB8E6"/>
<path d="M1597.88 1190.72L1532.94 851.077L1380.5 880.224L1445.44 1219.87L1597.88 1190.72Z" fill="#F6F4E8"/>
<path d="M1575.58 1154.74L1518.05 853.89L1513.14 854.829L1570.67 1155.68L1575.58 1154.74Z" fill="#D1CDCA"/>
<path d="M1544.56 1160.72L1487.03 859.877L1482.12 860.816L1539.65 1161.66L1544.56 1160.72Z" fill="#D1CDCA"/>
<path d="M1515.98 1166.13L1458.46 865.28L1453.55 866.219L1511.07 1167.07L1515.98 1166.13Z" fill="#D1CDCA"/>
<path d="M1484.96 1172.11L1427.44 871.266L1422.52 872.205L1480.05 1173.05L1484.96 1172.11Z" fill="#D1CDCA"/>
<path d="M1457.77 1177.31L1400.24 876.459L1395.33 877.398L1452.86 1178.25L1457.77 1177.31Z" fill="#D1CDCA"/>
<path d="M1429.7 1288.9L1417.5 1225.3L1625.9 1185.4L1638.1 1249C1640.1 1259.7 1633.1 1270 1622.5 1272L1452.8 1304.5C1442 1306.6 1431.7 1299.6 1429.7 1288.9Z" fill="#79A7D1"/>
<path d="M1591.75 1277.91L1585.52 1245.3L1480.42 1265.4L1486.66 1298.01L1591.75 1277.91Z" fill="#ACCCE8"/>
<path d="M1329 942.8H749.6V1086.8H1329V942.8Z" fill="#F6F4E8"/>
<path d="M1329 956.9H749.6V961.5H1329V956.9Z" fill="#D1CDCA"/>
<path d="M1329 986.1H749.6V990.7H1329V986.1Z" fill="#D1CDCA"/>
<path d="M1329 1013.2H749.6V1017.8H1329V1013.2Z" fill="#D1CDCA"/>
<path d="M1329 1042.4H749.6V1047H1329V1042.4Z" fill="#D1CDCA"/>
<path d="M1329 1068.1H749.6V1072.7H1329V1068.1Z" fill="#D1CDCA"/>
<path d="M1346.1 942.8V916.4H735.9V942.8H758.9H1346.1Z" fill="#D7CE93"/>
<path d="M758.9 1086.8H735.9V1113.2H1346.1V1086.8H758.9Z" fill="#D7CE93"/>
</svg>
