<svg width="60" height="61" viewBox="0 0 60 61" fill="none" xmlns="http://www.w3.org/2000/svg">
<path d="M14.625 43.25C16.75 41.625 19.125 40.3438 21.75 39.4062C24.375 38.4688 27.125 38 30 38C32.875 38 35.625 38.4688 38.25 39.4062C40.875 40.3438 43.25 41.625 45.375 43.25C46.8333 41.5417 47.9688 39.6042 48.7812 37.4375C49.5938 35.2708 50 32.9583 50 30.5C50 24.9583 48.0521 20.2396 44.1562 16.3438C40.2604 12.4479 35.5417 10.5 30 10.5C24.4583 10.5 19.7396 12.4479 15.8438 16.3438C11.9479 20.2396 10 24.9583 10 30.5C10 32.9583 10.4062 35.2708 11.2188 37.4375C12.0312 39.6042 13.1667 41.5417 14.625 43.25ZM30 33C27.5417 33 25.4688 32.1562 23.7812 30.4688C22.0938 28.7812 21.25 26.7083 21.25 24.25C21.25 21.7917 22.0938 19.7188 23.7812 18.0312C25.4688 16.3438 27.5417 15.5 30 15.5C32.4583 15.5 34.5312 16.3438 36.2188 18.0312C37.9062 19.7188 38.75 21.7917 38.75 24.25C38.75 26.7083 37.9062 28.7812 36.2188 30.4688C34.5312 32.1562 32.4583 33 30 33ZM30 55.5C26.5417 55.5 23.2917 54.8438 20.25 53.5312C17.2083 52.2188 14.5625 50.4375 12.3125 48.1875C10.0625 45.9375 8.28125 43.2917 6.96875 40.25C5.65625 37.2083 5 33.9583 5 30.5C5 27.0417 5.65625 23.7917 6.96875 20.75C8.28125 17.7083 10.0625 15.0625 12.3125 12.8125C14.5625 10.5625 17.2083 8.78125 20.25 7.46875C23.2917 6.15625 26.5417 5.5 30 5.5C33.4583 5.5 36.7083 6.15625 39.75 7.46875C42.7917 8.78125 45.4375 10.5625 47.6875 12.8125C49.9375 15.0625 51.7188 17.7083 53.0312 20.75C54.3438 23.7917 55 27.0417 55 30.5C55 33.9583 54.3438 37.2083 53.0312 40.25C51.7188 43.2917 49.9375 45.9375 47.6875 48.1875C45.4375 50.4375 42.7917 52.2188 39.75 53.5312C36.7083 54.8438 33.4583 55.5 30 55.5ZM30 50.5C32.2083 50.5 34.2917 50.1771 36.25 49.5312C38.2083 48.8854 40 47.9583 41.625 46.75C40 45.5417 38.2083 44.6146 36.25 43.9688C34.2917 43.3229 32.2083 43 30 43C27.7917 43 25.7083 43.3229 23.75 43.9688C21.7917 44.6146 20 45.5417 18.375 46.75C20 47.9583 21.7917 48.8854 23.75 49.5312C25.7083 50.1771 27.7917 50.5 30 50.5ZM30 28C31.0833 28 31.9792 27.6458 32.6875 26.9375C33.3958 26.2292 33.75 25.3333 33.75 24.25C33.75 23.1667 33.3958 22.2708 32.6875 21.5625C31.9792 20.8542 31.0833 20.5 30 20.5C28.9167 20.5 28.0208 20.8542 27.3125 21.5625C26.6042 22.2708 26.25 23.1667 26.25 24.25C26.25 25.3333 26.6042 26.2292 27.3125 26.9375C28.0208 27.6458 28.9167 28 30 28Z" fill="#9C3F21"/>
</svg>
